<?xml version="1.0" standalone="yes"?>
<svg xmlns="http://www.w3.org/2000/svg" width="1000" height="882">
<path style="fill:#fffefe; stroke:none;" d="M0 0L0 882L1000 882L1000 0L0 0z"/>
<path style="fill:#010101; stroke:none;" d="M6 6L6 872C8.85716 868.221 10.294 863.357 12.1497 859C15.9641 850.044 19.4366 840.942 23.2809 832C36.9555 800.192 49.805 768.005 63.0108 736C102.201 641.021 143.846 546.792 181 451C190.286 456.291 198.519 463.645 207 470.116C221.987 481.549 236.92 493.064 252 504.373C258.574 509.304 264.852 514.928 272 519L272 442L185 442C197.013 406.71 213.767 372.469 227.989 338C257.711 265.968 287.273 193.853 317.424 122C327.197 98.7108 336.652 75.2891 346.424 52C352.716 37.0059 360.709 21.6897 365 6L6 6z"/>
<path style="fill:#0165b1; stroke:none;" d="M185 442L419 442C423.691 421.723 432.084 401.749 438.667 382L477.333 266L491 225C493.5 217.499 496.843 209.837 498 202C501.611 208.852 503.554 216.663 506 224L518.333 261L557.333 378L572.667 424C574.164 428.493 575.464 438.131 579.51 440.972C583.412 443.712 592.414 442 597 442L642 442L813 442C810.235 430.334 804.121 419.089 799.603 408C790.21 384.944 780.508 362.013 771.011 339C741.002 266.284 710.283 193.85 680.603 121C669.439 93.5975 657.767 66.402 646.603 39C643.478 31.3286 640.396 23.6207 637.15 16C635.971 13.234 634.911 8.85645 632.351 7.02777C629.546 5.0246 624.253 6 621 6L594 6L488 6L399 6L375 6C372.202 6.00018 368.071 5.29755 365.649 7.02777C363.053 8.88232 362.144 13.2012 360.989 16C358.239 22.6643 355.567 29.3768 352.719 36C341.033 63.183 330.405 90.8177 318.719 118C287.521 190.568 258.118 263.981 227.989 337L198.989 407C194.294 418.378 187.847 430.015 185 442z"/>
<path style="fill:#010101; stroke:none;" d="M633 6C636.824 19.981 643.967 33.635 649.576 47C659.487 70.6196 669.218 94.3223 678.989 118C708.03 188.371 736.967 258.802 766.424 329C776.197 352.289 785.652 375.711 795.424 399C801.388 413.212 808.06 427.398 813 442L725 442L725 519C734.08 514.478 741.96 507.018 750 500.884C764.655 489.703 779.277 478.464 794 467.374C801.239 461.922 808.649 454.535 817 451C820.371 463.327 826.578 475.172 831.397 487C841.61 512.069 852.101 537.039 862.576 562C891.339 630.544 919.658 699.286 948.011 768C962.234 802.471 979.052 836.681 991 872C993.701 865.564 992 855.951 992 849L992 798L992 621L992 6L633 6M498 202C495.102 214.527 490.066 226.803 486 239C478.001 262.998 469.827 286.946 462 311L535 311C529.295 286.342 519.006 262.018 511 238L503.333 215C501.86 210.581 500.805 205.75 498 202z"/>
<path style="fill:#f58125; stroke:none;" d="M419 442L272 442L272 497C272 503.016 269.838 514.276 273.028 519.536C277.335 526.638 288.448 532.169 295 537.13C311.063 549.292 326.937 561.708 343 573.87C348.676 578.168 354.403 582.39 360 586.79C362.215 588.531 365.61 590.396 366.647 593.174C367.928 596.606 365.08 601.76 364 605L354.667 633L331.333 703C327.158 715.526 321.976 728.136 319 741L678 741C675.526 724.247 667.356 707.067 662 691C651.001 658.003 639.762 625.075 629 592C637.778 588.289 645.396 580.577 653 574.873C668.745 563.064 684.352 551.054 700 539.116C705.671 534.789 711.298 530.414 717 526.127C719.651 524.133 723.114 522.133 724.397 518.91C726.972 512.437 725 501.919 725 495L725 442L620 442L592 442C588.523 442 583.365 442.906 580.278 440.972C577.412 439.177 576.661 434.978 575.667 432L568.333 410L545.333 341L538.667 321C537.789 318.366 537.168 314.647 535.157 312.603C532.773 310.181 528.073 311 525 311L497 311L473 311C470.036 311 465.232 310.13 462.702 312.028C460.253 313.865 459.579 318.262 458.667 321L450.667 345L429.667 408C426.001 418.996 420.695 430.524 419 442z"/>
<path style="fill:#fffefe; stroke:none;" d="M497 331C486.844 366.787 475.566 402.249 465.291 438C462.314 448.356 459.091 458.636 456.14 469C455.012 472.966 452.522 477.812 452.975 482C453.485 486.724 457.922 491.282 460.579 495C466.514 503.306 472.425 511.637 478.28 520L490.28 537C492.884 540.719 495.031 544.666 499 547C499 496.761 498 446.325 498 396L498 352C498 345.58 499.497 336.951 497 331z"/>
<path style="fill:#0165b1; stroke:none;" d="M181 451C174.778 462.684 170.393 475.737 165.397 488C157.502 507.377 149.286 526.621 141.397 546C118.14 603.129 94.4424 660.123 70.5756 717C56.6161 750.267 43.2866 783.809 29.1497 817C23.7775 829.613 18.5691 842.304 13.3966 855C10.7376 861.527 7.2022 868.018 6 875L202 875L254 875C259.002 875 269.257 876.945 273.49 873.972C276.057 872.17 276.737 867.787 277.667 865L285 843L313 759L353.333 638L364 606C365.172 602.485 368.251 596.923 367.212 593.174C365.971 588.696 358.506 584.784 355 582.13C343.995 573.797 332.974 565.488 322 557.116C289.999 532.702 258.091 508.167 226 483.87C216.288 476.517 206.74 468.943 197 461.627C191.917 457.808 186.97 453.296 181 451M629 592C634.549 615.984 644.546 639.639 652.333 663L698 800L716 854C717.705 859.115 719.264 870.644 723.702 873.972C727.702 876.972 738.179 875 743 875L794 875L992 875C989.431 860.078 980.307 844.999 974.603 831C962.078 800.255 949.27 769.612 936.424 739C913.245 683.763 890.754 628.237 867.576 573C850.558 532.446 832.904 492.004 817 451C810.167 452.777 804.573 458.693 799 462.873C786.588 472.183 774.335 481.705 762 491.116C731.034 514.74 700.154 538.498 669 561.873C655.757 571.81 643.051 583.25 629 592z"/>
<path style="fill:#fffefe; stroke:none;" d="M500 548C512.571 545.092 524.681 539.854 537 536.025C573.828 524.581 610.411 512.196 647 500C666.358 493.547 686.132 485.597 706 481C697.018 477.231 682.709 481 673 481C644.312 481 615.703 482.998 587 483C577.975 483.001 569.054 484 560 484C556.193 484 550.72 483.033 547.3 485.028C541.442 488.445 536.893 497.64 532.873 503C526.12 512.005 519.487 521.116 512.576 530C508.152 535.686 502.82 541.33 500 548M290 482L291 483L290 482M292 483C299.792 492.428 313.839 499.193 324 506.001C344.778 519.921 365.58 533.984 386 548.424C393.932 554.034 402 559.461 410 564.975C413.442 567.347 417.67 571.188 422 571.538C428.94 572.098 438.394 567.078 445 565.025C462.492 559.591 480.163 553.127 498 549C492.258 545.391 484.442 544.147 478 542C462.732 536.911 447.268 532.423 432 527.333C402.475 517.492 372.718 508.21 343 498.975C326.132 493.733 309.307 486.582 292 483M499 549C509.965 566.765 523.73 583.196 536.116 600C566.457 641.164 598.24 681.721 627 724C627.724 720.504 625.869 717.309 624.692 714C622.208 707.017 619.704 700.021 617.333 693C607.819 664.839 597.094 637.08 587.344 609C584.566 600.999 581.854 592.955 578.947 585C577.715 581.63 576.676 577.142 573.722 574.843C567.778 570.218 557.099 568.722 550 566.333C532.987 560.606 516.078 554.557 499 549M497 550C486.519 566.981 473.711 582.928 461.884 599C443.127 624.491 424.712 650.265 406.29 676C398.866 686.371 391.363 696.694 383.849 707C379.682 712.714 374.553 718.363 372 725C383.927 717.573 394.912 708.05 406 699.424C423.22 686.029 440.557 672.73 458 659.627C467.049 652.828 476.1 645.993 485 639C488.451 636.288 493.719 633.563 495.972 629.7C498.685 625.049 496.674 617.211 497.17 612C498.496 598.068 498 584.006 498 570C498 563.846 499.395 555.707 497 550z"/>
<path style="fill:#010101; stroke:none;" d="M274 875L723 875C720.648 864.833 716.633 854.898 713.333 845L691 778C686.934 765.803 681.898 753.527 679 741L415 741L346 741L328 741C325.402 741.001 321.769 740.442 319.51 742.028C316.738 743.974 316.005 748.985 315 752L306.667 777C295.779 809.664 284.653 842.259 274 875z"/>
</svg>
