<?xml version="1.0" encoding="UTF-8" standalone="no"?>
<!-- Created with Inkscape (http://www.inkscape.org/) -->

<svg
   width="13.673in"
   height="12.062in"
   viewBox="0 0 347.29422 306.37482"
   version="1.1"
   id="svg5"
   inkscape:version="1.1.1 (3bf5ae0d25, 2021-09-20)"
   sodipodi:docname="uta_logo.svg"
   xmlns:inkscape="http://www.inkscape.org/namespaces/inkscape"
   xmlns:sodipodi="http://sodipodi.sourceforge.net/DTD/sodipodi-0.dtd"
   xmlns="http://www.w3.org/2000/svg"
   xmlns:svg="http://www.w3.org/2000/svg">
  <sodipodi:namedview
     id="namedview7"
     pagecolor="#505050"
     bordercolor="#eeeeee"
     borderopacity="1"
     inkscape:pageshadow="0"
     inkscape:pageopacity="0"
     inkscape:pagecheckerboard="0"
     inkscape:document-units="mm"
     showgrid="false"
     inkscape:zoom="0.2526012"
     inkscape:cx="1902.2079"
     inkscape:cy="203.87868"
     inkscape:window-width="1920"
     inkscape:window-height="991"
     inkscape:window-x="1591"
     inkscape:window-y="129"
     inkscape:window-maximized="1"
     inkscape:current-layer="layer1"
     width="13.673in"
     units="in" />
  <defs
     id="defs2" />
  <g
     inkscape:label="Layer 1"
     inkscape:groupmode="layer"
     id="layer1">
    <g
       id="g1681"
       transform="translate(257.38585,67.303191)">
      <path
         style="fill:#f47f24;fill-opacity:1;stroke-width:0.352778"
         d="m -133.11988,191.11747 c 0,-0.22952 4.14006,-13.11354 9.20014,-28.63115 7.55853,-23.17955 9.12189,-28.30812 8.76158,-28.74226 -0.24121,-0.29064 -11.20387,-8.32029 -24.36148,-17.84368 -13.1576,-9.52338 -23.83782,-17.452932 -23.73381,-17.621218 0.10437,-0.168885 13.59514,-0.305971 30.11119,-0.305971 23.52467,0 29.99338,-0.09428 30.25552,-0.440972 0.18338,-0.242535 4.431655,-13.061597 9.440615,-28.486805 5.00896,-15.425208 9.22606,-28.178727 9.37134,-28.341153 0.14528,-0.16243 0.35191,-0.153335 0.45916,0.02021 0.10726,0.173542 4.25144,12.768312 9.20929,27.988376 4.95785,15.220064 9.17086,28.030031 9.36225,28.466594 l 0.34796,0.79375 h 29.97285 c 17.89652,0 30.0538002,0.130965 30.1737402,0.325045 0.11049,0.178774 -10.3973202,7.981124 -23.3507002,17.338544 -12.95338,9.35742 -23.91287,17.35478 -24.35443,17.77191 l -0.80282,0.75842 9.1813,28.13992 c 5.04971,15.47696 9.1813,28.3677 9.1813,28.6461 0,0.2784 -0.11907,0.50196 -0.26459,0.49681 -0.14552,-0.005 -11.10079,-7.86327 -24.34505,-17.4625 -13.24426,-9.59922 -24.29637,-17.45313 -24.56025,-17.45313 -0.26389,0 -11.24042,7.79305 -24.392285,17.3179 -13.15187,9.52485 -24.12631,17.39995 -24.38766,17.50024 -0.26134,0.10029 -0.47516,-0.005 -0.47516,-0.23498 z"
         id="path2366" />
      <path
         id="path2368"
         style="fill:#ffffff;stroke-width:0.352778"
         d="m -105.85862,168.88153 c 11.560925,-8.82827 21.124755,-16.28952 21.252965,-16.58056 0.3961,-0.89915 0.66821,-27.16389 0.28143,-27.16389 -0.28766,0 -40.831985,55.69474 -42.944735,58.99213 -0.54399,0.84901 -0.57173,1.02983 -0.14249,0.92896 0.29314,-0.0689 9.99191,-7.34838 21.55283,-16.17664 z m 58.078145,-10.09475 c -4.88361,-13.75365 -9.05689,-25.18211 -9.27394,-25.39656 -0.21705,-0.21446 -5.95089,-2.2656 -12.74186,-4.55811 -6.79097,-2.2925 -12.57322,-4.24804 -12.84944,-4.34563 -0.35568,-0.12567 -0.43458,-0.001 -0.27041,0.42664 0.23132,0.60281 40.15299,55.09798 42.52389,58.04734 0.68765,0.85543 1.30445,1.3928 1.37067,1.19415 0.0662,-0.19865 -3.87529,-11.61417 -8.75891,-25.36783 z m -50.31657,-30.52026 c 7.0282,-2.15937 12.84734,-3.98764 12.93141,-4.06283 0.0841,-0.0752 0.005,-0.28148 -0.17638,-0.45844 -0.46651,-0.45585 -70.031855,-22.64654 -70.499455,-22.48866 -0.21194,0.0716 0.32902,0.63075 1.20214,1.24263 7.02323,4.92186 43.27435,29.65531 43.48951,29.67206 0.15083,0.0118 6.02458,-1.74539 13.052775,-3.90476 z m 44.32136,-14.21853 c 15.63617,-5.12885 31.42454,-10.3014 35.08527,-11.49455 3.66072,-1.19314 6.51822,-2.30239 6.35,-2.46498 -0.29996,-0.289925 -52.5434,0.92386 -53.92808,1.25292 -0.41778,0.0993 -3.94306,4.50271 -8.64306,10.79604 -4.36562,5.84561 -7.99042,10.76504 -8.05509,10.93207 -0.0647,0.16704 0.0802,0.30371 0.32198,0.30371 0.24177,0 13.23281,-4.19635 28.86898,-9.32521 z m -30.29023,-28.131392 c -0.0277,-20.240208 -0.18469,-36.934678 -0.34883,-37.098815 -0.16414,-0.164141 -0.46841,0.232117 -0.67615,0.880572 -1.72454,5.382972 -14.86788,50.19534 -14.86788,50.692215 0,0.35247 1.6146,2.92932 3.58799,5.72632 9.92877,14.07263 12.01203,16.94332 12.17646,16.77889 0.0983,-0.0983 0.15612,-16.73897 0.12841,-36.979182 z" />
      <path
         id="path1685"
         style="fill:#ffffff;stroke-width:0.352778"
         d="m -257.17491,238.11416 c 0.37037,-1.70344 61.15229,-148.042369 61.54362,-148.172812 0.36764,-0.122548 64.512,48.569942 65.10571,49.422262 0.29359,0.42148 -31.92778,98.32126 -32.67554,99.27972 -0.27216,0.34884 -10.14678,0.44097 -47.26438,0.44097 h -46.92035 z m 252.5160552,0.35278 c -0.18022,-0.33955 -7.6441802,-22.68287 -16.5865802,-49.65184 l -16.25891,-49.03447 0.78737,-0.7731 c 1.32964,-1.30554 64.26293,-49.141348 64.65555,-49.144897 0.35645,-0.0032 61.518018,146.828827 61.826308,148.427917 l 0.15303,0.79375 H 42.793368 c -44.5205028,0 -47.1426528,-0.0341 -47.4522228,-0.61736 z M -193.96722,85.989798 c -0.11616,-0.187949 14.05135,-34.755761 31.48336,-76.8173587 l 31.69454,-76.4756303 h 47.071535 47.07153 L -4.9779548,9.0731963 C 12.439615,51.080208 26.615535,85.64802 26.524085,85.890555 c -0.24395,0.64698 -81.42628,0.64698 -81.95205,0 -0.19709,-0.242537 -6.57712,-19.222859 -14.17784,-42.178497 -8.98814,-27.145917 -13.96543,-41.6917737 -14.23693,-41.6066657 -0.22959,0.07197 -6.62633,18.8110347 -14.21499,41.6423667 -7.588645,22.831329 -13.997765,41.752766 -14.242495,42.047639 -0.39335,0.473953 -5.14215,0.536127 -40.95037,0.536127 -25.74986,0 -40.58236,-0.124488 -40.71663,-0.341729 z" />
    </g>
    <g
       id="g233"
       transform="matrix(0.26458333,0,0,0.26458333,86.682197,-127.5038)" />
  </g>
</svg>
